<svg fill="#000000" xmlns="http://www.w3.org/2000/svg" viewBox="0 0 30 30" width="24px" height="24px"><path fill="none" stroke="#000000" stroke-miterlimit="10" stroke-width="2" d="M2.831 16.952c-2.127-1.148-2.208-3.723-1.143-5.054 1.065-1.198 3.371-1.226 4.486.023M23.826 11.922c1.114-1.249 3.421-1.221 4.486-.023 1.065 1.331.984 3.906-1.143 5.054"/><path d="M25.5,2C24.125,2,23,3.125,23,4.5S24.125,7,25.5,7S28,5.875,28,4.5S26.875,2,25.5,2L25.5,2z"/><path fill="none" stroke="#000000" stroke-miterlimit="10" stroke-width="2" d="M15,9.958V5.662C15,4.198,16.065,3,17.662,3s2.929,1.331,6.257,1.331"/><path d="M15,9C7.832,9,2,13.038,2,18s5.832,9,13,9s13-4.038,13-9S22.168,9,15,9z M8,16c0-1.105,0.895-2,2-2s2,0.895,2,2c0,1.105-0.895,2-2,2S8,17.105,8,16z M15,23c-2.556,0-4.6-1.6-5.239-3.333c1.15,0.933,3.067,1.6,5.239,1.6s4.089-0.667,5.239-1.734C19.6,21.4,17.556,23,15,23z M20,18c-1.105,0-2-0.895-2-2c0-1.105,0.895-2,2-2s2,0.895,2,2C22,17.105,21.105,18,20,18z"/></svg>